<svg id="Layer_1" data-name="Layer 1" xmlns="http://www.w3.org/2000/svg" viewBox="0 0 684.07 119.82"><defs><style>.cls-1{fill:#a3a3a3;}.cls-2{fill:#00a6d1;}.cls-3{fill:#e50a2f;}</style></defs><title>logo</title><path class="cls-1" d="M268.36,356.18a3.26,3.26,0,0,1-1-2.4v-29.4H263a2.94,2.94,0,0,1-2.92-2.92,2.78,2.78,0,0,1,.86-2.1,2.88,2.88,0,0,1,2.06-.83h4.43v-4.35a15,15,0,0,1,1.61-7.39,10,10,0,0,1,4.2-4.2,11.87,11.87,0,0,1,5.44-1.31,14.38,14.38,0,0,1,6.52,1.5,3.25,3.25,0,0,1,1.24,1.09,2.67,2.67,0,0,1,.49,1.54,2.79,2.79,0,0,1-.83,2,2.61,2.61,0,0,1-2,.86,7.08,7.08,0,0,1-1.72-.22q-1.8-.23-2-.22a6.58,6.58,0,0,0-4.61,1.42q-1.54,1.43-1.54,5.17v4.13h9.38a2.82,2.82,0,0,1,2.93,2.92,2.88,2.88,0,0,1-.83,2.06,2.78,2.78,0,0,1-2.1.86h-9.37v29.4a3.2,3.2,0,0,1-1,2.4,3.4,3.4,0,0,1-2.44,1A3.27,3.27,0,0,1,268.36,356.18Z" transform="translate(-25.66 -299.3)"/><path class="cls-1" d="M294.16,356.18a3.26,3.26,0,0,1-1-2.4V321.6a3.39,3.39,0,0,1,1-2.44,3.2,3.2,0,0,1,2.4-1A3.46,3.46,0,0,1,300,321.6v3.22q5.25-7,11.78-7h.38a3.15,3.15,0,0,1,2.36,1,3.34,3.34,0,0,1,.94,2.4,3,3,0,0,1-1,2.33,3.51,3.51,0,0,1-2.47.9h-.37a12.8,12.8,0,0,0-6.6,1.76,15.2,15.2,0,0,0-5,4.84v22.8a3.2,3.2,0,0,1-1,2.4,3.39,3.39,0,0,1-2.44,1A3.26,3.26,0,0,1,294.16,356.18Z" transform="translate(-25.66 -299.3)"/><path class="cls-1" d="M327.54,355.05a16.81,16.81,0,0,1-6.71-7,24,24,0,0,1,0-20.78,16.82,16.82,0,0,1,6.71-7,21.8,21.8,0,0,1,20.17,0,17.07,17.07,0,0,1,6.75,7,23.68,23.68,0,0,1,0,20.78,17.07,17.07,0,0,1-6.75,7,21.8,21.8,0,0,1-20.17,0Zm16-5.18a11.45,11.45,0,0,0,4.65-4.5,15,15,0,0,0,1.84-7.8,14.85,14.85,0,0,0-1.84-7.72,11.21,11.21,0,0,0-4.65-4.46,13.15,13.15,0,0,0-5.89-1.39,13.3,13.3,0,0,0-6,1.39,11,11,0,0,0-4.61,4.46,15.11,15.11,0,0,0-1.8,7.72,15.26,15.26,0,0,0,1.8,7.8,11.21,11.21,0,0,0,4.61,4.5,13,13,0,0,0,6,1.43A12.85,12.85,0,0,0,343.55,349.88Z" transform="translate(-25.66 -299.3)"/><path class="cls-1" d="M367.36,356.18a3.26,3.26,0,0,1-1-2.4V321.6a3.39,3.39,0,0,1,1-2.44,3.2,3.2,0,0,1,2.4-1,3.46,3.46,0,0,1,3.45,3.45v3.08a24.89,24.89,0,0,1,6.15-5,15.54,15.54,0,0,1,7.8-1.87,13,13,0,0,1,7.16,2,12.69,12.69,0,0,1,4.65,5.33,17,17,0,0,1,1.61,7.42v21.3a3.2,3.2,0,0,1-1,2.4,3.39,3.39,0,0,1-2.44,1,3.33,3.33,0,0,1-3.37-3.37V333.23q0-9.15-8.25-9.15a11.93,11.93,0,0,0-6.71,2,24.3,24.3,0,0,0-5.59,5.25v22.5a3.2,3.2,0,0,1-1,2.4,3.39,3.39,0,0,1-2.44,1A3.26,3.26,0,0,1,367.36,356.18Z" transform="translate(-25.66 -299.3)"/><path class="cls-1" d="M413.41,347.63V324.38h-5.33a1.41,1.41,0,0,1-1.42-1.42,1.57,1.57,0,0,1,.67-1.27l10.2-10a1.89,1.89,0,0,1,1.28-.67,1.32,1.32,0,0,1,1,.45,1.51,1.51,0,0,1,.41,1v6h8.47a2.82,2.82,0,0,1,2.93,2.92,2.88,2.88,0,0,1-.83,2.06,2.78,2.78,0,0,1-2.1.86h-8.47V347q0,2.93,1.39,3.71a7,7,0,0,0,3.49.79,10.41,10.41,0,0,0,3-.45l.64-.15a4.09,4.09,0,0,1,.86-.08,2.65,2.65,0,0,1,1.88.79,2.55,2.55,0,0,1,.83,1.91,2.84,2.84,0,0,1-1.73,2.63,14.68,14.68,0,0,1-6.22,1.35Q413.41,357.53,413.41,347.63Z" transform="translate(-25.66 -299.3)"/><path class="cls-1" d="M442.1,352.31Q437,347.1,437,337.65a24.43,24.43,0,0,1,2-9.83,16.69,16.69,0,0,1,6-7.27,17.23,17.23,0,0,1,10-2.78,17.44,17.44,0,0,1,9.6,2.59,16.74,16.74,0,0,1,6.15,6.9,21.23,21.23,0,0,1,2.1,9.41,3.28,3.28,0,0,1-3.45,3.38H443.86a12.32,12.32,0,0,0,3.9,8.17q3.3,2.93,9.22,2.92a22.53,22.53,0,0,0,5.51-.6,22.91,22.91,0,0,0,4.61-1.73,3,3,0,0,1,1.35-.3,3,3,0,0,1,2.1.83,2.73,2.73,0,0,1,.9,2.1,3.24,3.24,0,0,1-1.95,2.78,23.43,23.43,0,0,1-13.12,3.3Q447.23,357.53,442.1,352.31ZM466,334.5a12,12,0,0,0-1.91-6.15,10.32,10.32,0,0,0-4.16-3.64,11.44,11.44,0,0,0-10,0,10.07,10.07,0,0,0-4.12,3.64,12.24,12.24,0,0,0-1.87,6.15Z" transform="translate(-25.66 -299.3)"/><path class="cls-1" d="M482.71,356.18a3.26,3.26,0,0,1-1-2.4V321.6a3.39,3.39,0,0,1,1-2.44,3.2,3.2,0,0,1,2.4-1,3.46,3.46,0,0,1,3.45,3.45v3.08a24.89,24.89,0,0,1,6.15-5,15.54,15.54,0,0,1,7.8-1.87,13,13,0,0,1,7.16,2,12.69,12.69,0,0,1,4.65,5.33,17,17,0,0,1,1.61,7.42v21.3a3.2,3.2,0,0,1-1,2.4,3.39,3.39,0,0,1-2.44,1,3.33,3.33,0,0,1-3.37-3.37V333.23q0-9.15-8.25-9.15a11.93,11.93,0,0,0-6.71,2,24.3,24.3,0,0,0-5.59,5.25v22.5a3.2,3.2,0,0,1-1,2.4,3.39,3.39,0,0,1-2.44,1A3.26,3.26,0,0,1,482.71,356.18Z" transform="translate(-25.66 -299.3)"/><path class="cls-1" d="M534.42,355.16a17.91,17.91,0,0,1-6.75-6.9,23.05,23.05,0,0,1,0-21.22,17.92,17.92,0,0,1,6.75-6.9,17.58,17.58,0,0,1,8.81-2.36,17.24,17.24,0,0,1,12.83,5.7V305.1a3.29,3.29,0,0,1,1-2.48,3.39,3.39,0,0,1,2.44-1,3.2,3.2,0,0,1,2.4,1,3.39,3.39,0,0,1,1,2.44v48.67a3.33,3.33,0,0,1-3.37,3.38,3.39,3.39,0,0,1-2.44-1,3.2,3.2,0,0,1-1-2.4v-2a17.23,17.23,0,0,1-12.83,5.7A17.58,17.58,0,0,1,534.42,355.16Zm16.28-5.55a18.53,18.53,0,0,0,5.36-4.09V329.78a18.57,18.57,0,0,0-5.36-4.09,14.19,14.19,0,0,0-6.49-1.54,11.79,11.79,0,0,0-8.92,3.53q-3.37,3.53-3.37,10t3.38,10a11.78,11.78,0,0,0,8.92,3.53A14.17,14.17,0,0,0,550.7,349.61Z" transform="translate(-25.66 -299.3)"/><path class="cls-1" d="M575.71,356.18a3.26,3.26,0,0,1-1-2.4V305.1a3.39,3.39,0,0,1,1-2.44,3.2,3.2,0,0,1,2.4-1,3.33,3.33,0,0,1,3.45,3.45v48.67a3.2,3.2,0,0,1-1,2.4,3.39,3.39,0,0,1-2.44,1A3.26,3.26,0,0,1,575.71,356.18Z" transform="translate(-25.66 -299.3)"/><path class="cls-1" d="M597,356.18a10.65,10.65,0,0,1-4.46-3.94,10.85,10.85,0,0,1-1.65-6,10.51,10.51,0,0,1,4.39-8.85q4.39-3.3,12.86-3.3h9.08v-.6q0-4.95-2.44-7.12t-7.61-2.17a25.5,25.5,0,0,0-5.06.45,42.52,42.52,0,0,0-4.91,1.35,4.2,4.2,0,0,1-1,.15,2.66,2.66,0,0,1-2-.83,2.75,2.75,0,0,1-.83-2,2.89,2.89,0,0,1,2-2.85,33,33,0,0,1,13-2.7,17,17,0,0,1,8.74,2.1,13.21,13.21,0,0,1,5.25,5.44,15.82,15.82,0,0,1,1.69,7.24v21.22a3.2,3.2,0,0,1-1,2.4,3.4,3.4,0,0,1-2.44,1,3.33,3.33,0,0,1-3.37-3.37v-2a18.84,18.84,0,0,1-14.1,5.7A14,14,0,0,1,597,356.18Zm15-6.26a17.73,17.73,0,0,0,5.18-4v-6.3h-8.18q-11.32,0-11.32,5.92a5.56,5.56,0,0,0,1.84,4.35q1.84,1.65,6.11,1.65A13.56,13.56,0,0,0,612.08,349.91Z" transform="translate(-25.66 -299.3)"/><path class="cls-1" d="M642.38,351.83v2a3.2,3.2,0,0,1-1,2.4,3.39,3.39,0,0,1-2.44,1,3.33,3.33,0,0,1-3.37-3.37V305.1a3.39,3.39,0,0,1,1-2.44,3.2,3.2,0,0,1,2.4-1,3.33,3.33,0,0,1,3.45,3.45v18.38a17.23,17.23,0,0,1,12.83-5.7,17.58,17.58,0,0,1,8.81,2.36,17.94,17.94,0,0,1,6.75,6.9,23.06,23.06,0,0,1,0,21.22,17.92,17.92,0,0,1-6.75,6.9,17.58,17.58,0,0,1-8.81,2.36A17.23,17.23,0,0,1,642.38,351.83Zm20.78-4.2q3.38-3.52,3.38-10t-3.37-10a11.79,11.79,0,0,0-8.93-3.53,14.19,14.19,0,0,0-6.49,1.54,18.54,18.54,0,0,0-5.36,4.09v15.75a18.51,18.51,0,0,0,5.36,4.09,14.16,14.16,0,0,0,6.49,1.54A11.78,11.78,0,0,0,663.16,347.63Z" transform="translate(-25.66 -299.3)"/><path class="cls-1" d="M681.61,354.15a2.86,2.86,0,0,1-1.28-2.47,3,3,0,0,1,.83-2.1,2.72,2.72,0,0,1,2.1-.9,3.32,3.32,0,0,1,1.35.3,30.2,30.2,0,0,0,4.8,1.65,22.23,22.23,0,0,0,5.4.6q8.33,0,8.33-5.33a2.84,2.84,0,0,0-1.91-2.62,39.23,39.23,0,0,0-6.26-2,56.35,56.35,0,0,1-7.31-2.17,12.85,12.85,0,0,1-5-3.41,8.67,8.67,0,0,1-2.06-6,10.81,10.81,0,0,1,3.79-8.55q3.79-3.3,10.84-3.3a31.29,31.29,0,0,1,10.88,1.88,2.81,2.81,0,0,1,1.61,1.13,3,3,0,0,1,.56,1.72,2.94,2.94,0,0,1-.86,2.1,2.84,2.84,0,0,1-2.14.9,4.17,4.17,0,0,1-1-.15,28.74,28.74,0,0,0-8.55-1.35,11.72,11.72,0,0,0-6.34,1.46,4.36,4.36,0,0,0-2.29,3.79,3.47,3.47,0,0,0,2.1,3.3,29.92,29.92,0,0,0,6.53,2,62.72,62.72,0,0,1,7.2,2.21,11.93,11.93,0,0,1,4.76,3.41,9.26,9.26,0,0,1,2,6.23,9.91,9.91,0,0,1-3.79,7.95q-3.79,3.15-10.69,3.15A27.89,27.89,0,0,1,681.61,354.15Z" transform="translate(-25.66 -299.3)"/><path class="cls-2" d="M239.51,360.29a5.87,5.87,0,0,0,.06-.6,9.07,9.07,0,0,0-.28-2.66,9.2,9.2,0,0,0-.32-1.11,8.91,8.91,0,0,0-1-1.9,8.07,8.07,0,0,0-.5-.92l-42.34-50.45a9.41,9.41,0,1,0-14.41,12.1l37.36,44.53L180.8,403.68A9.44,9.44,0,0,0,182,416.94h0a9.44,9.44,0,0,0,13.26-1.16l42.34-50.45a9,9,0,0,0,.93-1.71l.18-.33A9.24,9.24,0,0,0,239.51,360.29Z" transform="translate(-25.66 -299.3)"/><path class="cls-2" d="M47.19,359.27l37.36-44.53a9.41,9.41,0,1,0-14.41-12.09L27.8,353.11a9.29,9.29,0,0,0-.5.92,8.82,8.82,0,0,0-1,1.9,9,9,0,0,0-.32,1.11,9.27,9.27,0,0,0-.28,2.66c0,.21,0,.4.06.61a9,9,0,0,0,.86,3c.05.11.11.22.18.33a8.61,8.61,0,0,0,.93,1.71L70,415.78a9.41,9.41,0,0,0,14.42-12.1Z" transform="translate(-25.66 -299.3)"/><path class="cls-3" d="M189.13,345.6l-11.47-11.47a16.26,16.26,0,0,0-22.93,0L131.8,357.06l-22.93-22.93a16.26,16.26,0,0,0-22.93,0L74.46,345.6a16.26,16.26,0,0,0,0,22.93l45.87,45.87a16.26,16.26,0,0,0,22.93,0l11.47-11.47h0l34.4-34.4A16.26,16.26,0,0,0,189.13,345.6Z" transform="translate(-25.66 -299.3)"/><path class="cls-2" d="M265,380.73h28.78v7.07H273.57V396h18.2v7.07h-18.2v8.37h20.84v7.07H265Z" transform="translate(-25.66 -299.3)"/><path class="cls-2" d="M301.11,380.73h9.5L322.39,404,334,380.73h9.45v37.8h-7.67V393L325.09,414.7h-5.51L308.78,393v25.54h-7.67Z" transform="translate(-25.66 -299.3)"/><path class="cls-2" d="M379.08,384.16q3.94,3.43,3.94,9.69,0,6.59-4,10.23t-11.15,3.65H360.4v10.8h-8.53v-37.8h16Q375.14,380.73,379.08,384.16ZM373,399a6,6,0,0,0,1.92-4.83A5.79,5.79,0,0,0,373,389.4a8.46,8.46,0,0,0-5.54-1.59H360.4v12.8h7.07A8.26,8.26,0,0,0,373,399Z" transform="translate(-25.66 -299.3)"/><path class="cls-2" d="M388.48,380.73H397v30.35h16.2v7.45H388.48Z" transform="translate(-25.66 -299.3)"/><path class="cls-2" d="M418.29,380.73h28.78v7.07H426.82V396H445v7.07h-18.2v8.37h20.84v7.07H418.29Z" transform="translate(-25.66 -299.3)"/><path class="cls-2" d="M482.28,382.68a19.31,19.31,0,0,1,0,33.89,22,22,0,0,1-20.63,0,19.18,19.18,0,0,1-7.32-7,19.29,19.29,0,0,1,7.29-26.87,22.29,22.29,0,0,1,20.66,0Zm-16,6.51a11.62,11.62,0,0,0-4.27,4.35,12.25,12.25,0,0,0,4.29,16.52,11,11,0,0,0,5.8,1.62,10.86,10.86,0,0,0,5.75-1.59,11.57,11.57,0,0,0,4.16-4.37,12.45,12.45,0,0,0,1.54-6.13,12.2,12.2,0,0,0-1.54-6,11.63,11.63,0,0,0-4.16-4.35,10.87,10.87,0,0,0-5.75-1.59A11.28,11.28,0,0,0,466.24,389.18Z" transform="translate(-25.66 -299.3)"/></svg>